name rise32.9588peak41.5061fall63.4684.mot
datacolumns 19
datarows 15
range 22.96824900000000 22.99157900000000
endheader
time	ground_force1_vx	ground_force1_vy	ground_force1_vz	ground_force1_px	ground_force1_py	ground_force1_pz	ground_force2_vx	ground_force2_vy	ground_force2_vz	ground_force2_px	ground_force2_py	ground_force2_pz	ground_torque1_x	ground_torque1_y	ground_torque1_z	ground_torque2_x	ground_torque2_y	ground_torque2_z	
22.96824900000000	47.06136400000000	748.41732400000001	61.52499700000000	0.27134700000000	0.00000000000000	0.12365300000000	0.00000000000000	0.00000000000000	0.00000000000000	0.00000000000000	0.00000000000000	0.00000000000000	0.00000000000000	21.19053500000000	0.00000000000000	0.00000000000000	0.00000000000000	0.00000000000000	
22.96991600000000	46.30991300000000	750.39390600000002	61.58892700000000	0.27029800000000	0.00000000000000	0.12366200000000	0.00000000000000	0.00000000000000	0.00000000000000	0.00000000000000	0.00000000000000	0.00000000000000	0.00000000000000	21.24783500000000	0.00000000000000	0.00000000000000	0.00000000000000	0.00000000000000	
22.97157900000000	45.56869900000000	752.28316299999994	61.64653000000000	0.26928400000000	0.00000000000000	0.12366700000000	0.00000000000000	0.00000000000000	0.00000000000000	0.00000000000000	0.00000000000000	0.00000000000000	0.00000000000000	21.30309800000000	0.00000000000000	0.00000000000000	0.00000000000000	0.00000000000000	
22.97324300000000	44.83844700000000	754.08447200000001	61.69797300000000	0.26830500000000	0.00000000000000	0.12367000000000	0.00000000000000	0.00000000000000	0.00000000000000	0.00000000000000	0.00000000000000	0.00000000000000	0.00000000000000	21.35627800000000	0.00000000000000	0.00000000000000	0.00000000000000	0.00000000000000	
22.97491000000000	44.11978600000000	755.79722100000004	61.74336400000000	0.26735800000000	0.00000000000000	0.12367000000000	0.00000000000000	0.00000000000000	0.00000000000000	0.00000000000000	0.00000000000000	0.00000000000000	0.00000000000000	21.40729800000000	0.00000000000000	0.00000000000000	0.00000000000000	0.00000000000000	
22.97659400000000	43.41325000000000	757.42082700000003	61.78275700000000	0.26644200000000	0.00000000000000	0.12366700000000	0.00000000000000	0.00000000000000	0.00000000000000	0.00000000000000	0.00000000000000	0.00000000000000	0.00000000000000	21.45605600000000	0.00000000000000	0.00000000000000	0.00000000000000	0.00000000000000	
22.97824500000000	42.71928000000000	758.95474400000001	61.81615500000000	0.26555500000000	0.00000000000000	0.12366100000000	0.00000000000000	0.00000000000000	0.00000000000000	0.00000000000000	0.00000000000000	0.00000000000000	0.00000000000000	21.50242200000000	0.00000000000000	0.00000000000000	0.00000000000000	0.00000000000000	
22.97991600000000	42.03822800000000	760.39847699999996	61.84351400000000	0.26469500000000	0.00000000000000	0.12365200000000	0.00000000000000	0.00000000000000	0.00000000000000	0.00000000000000	0.00000000000000	0.00000000000000	0.00000000000000	21.54624600000000	0.00000000000000	0.00000000000000	0.00000000000000	0.00000000000000	
22.98158300000000	41.37036400000000	761.75159699999995	61.86474600000000	0.26386000000000	0.00000000000000	0.12364100000000	0.00000000000000	0.00000000000000	0.00000000000000	0.00000000000000	0.00000000000000	0.00000000000000	0.00000000000000	21.58735500000000	0.00000000000000	0.00000000000000	0.00000000000000	0.00000000000000	
22.98324900000000	40.71587100000000	763.01374499999997	61.87972400000000	0.26304800000000	0.00000000000000	0.12362800000000	0.00000000000000	0.00000000000000	0.00000000000000	0.00000000000000	0.00000000000000	0.00000000000000	0.00000000000000	21.62556000000000	0.00000000000000	0.00000000000000	0.00000000000000	0.00000000000000	
22.98490900000000	40.07485800000000	764.18464700000004	61.88828300000000	0.26225700000000	0.00000000000000	0.12361100000000	0.00000000000000	0.00000000000000	0.00000000000000	0.00000000000000	0.00000000000000	0.00000000000000	0.00000000000000	21.66065900000000	0.00000000000000	0.00000000000000	0.00000000000000	0.00000000000000	
22.98658000000000	39.44735900000000	765.26412400000004	61.89023100000000	0.26148500000000	0.00000000000000	0.12359300000000	0.00000000000000	0.00000000000000	0.00000000000000	0.00000000000000	0.00000000000000	0.00000000000000	0.00000000000000	21.69243300000000	0.00000000000000	0.00000000000000	0.00000000000000	0.00000000000000	
22.98824500000000	38.83333800000000	766.25209800000005	61.88534500000000	0.26072800000000	0.00000000000000	0.12357200000000	0.00000000000000	0.00000000000000	0.00000000000000	0.00000000000000	0.00000000000000	0.00000000000000	0.00000000000000	21.72065800000000	0.00000000000000	0.00000000000000	0.00000000000000	0.00000000000000	
22.98990900000000	38.23269600000000	767.14860399999998	61.87338200000000	0.25998500000000	0.00000000000000	0.12354900000000	0.00000000000000	0.00000000000000	0.00000000000000	0.00000000000000	0.00000000000000	0.00000000000000	0.00000000000000	21.74510100000000	0.00000000000000	0.00000000000000	0.00000000000000	0.00000000000000	
22.99157900000000	37.64527400000000	767.95379000000003	61.85408400000000	0.25925400000000	0.00000000000000	0.12352300000000	0.00000000000000	0.00000000000000	0.00000000000000	0.00000000000000	0.00000000000000	0.00000000000000	0.00000000000000	21.76552800000000	0.00000000000000	0.00000000000000	0.00000000000000	0.00000000000000	
